<svg width="33" height="25" viewBox="0 0 33 25" fill="none" xmlns="http://www.w3.org/2000/svg">
<g filter="url(#filter0_di_104_7)">
<path d="M27.657 8.33334C27.6634 8.22304 27.6666 8.1119 27.6666 8C27.6666 4.87039 25.1296 2.33334 22 2.33334C20.494 2.33334 19.1253 2.9208 18.1104 3.87906C17.597 3.74056 17.0571 3.66668 16.5 3.66668C14.4849 3.66668 12.6955 4.63324 11.5702 6.12804C11.2272 6.04436 10.8688 6.00001 10.5 6.00001C8.01471 6.00001 6 8.01472 6 10.5C6 10.5116 6.00004 10.5232 6.00012 10.5347C6.00004 10.5429 6 10.551 6 10.5591C6 13.564 8.43595 16 11.4409 16H20C24.2342 16 27.6666 12.5675 27.6666 8.33334H27.657Z" fill="white"/>
<path d="M27.657 8.33334C27.6634 8.22304 27.6666 8.1119 27.6666 8C27.6666 4.87039 25.1296 2.33334 22 2.33334C20.494 2.33334 19.1253 2.9208 18.1104 3.87906C17.597 3.74056 17.0571 3.66668 16.5 3.66668C14.4849 3.66668 12.6955 4.63324 11.5702 6.12804C11.2272 6.04436 10.8688 6.00001 10.5 6.00001C8.01471 6.00001 6 8.01472 6 10.5C6 10.5116 6.00004 10.5232 6.00012 10.5347C6.00004 10.5429 6 10.551 6 10.5591C6 13.564 8.43595 16 11.4409 16H20C24.2342 16 27.6666 12.5675 27.6666 8.33334H27.657Z" fill="url(#paint0_radial_104_7)" fill-opacity="0.2"/>
</g>
<defs>
<filter id="filter0_di_104_7" x="0.666673" y="0.333346" width="32.3333" height="24.3333" filterUnits="userSpaceOnUse" color-interpolation-filters="sRGB">
<feFlood flood-opacity="0" result="BackgroundImageFix"/>
<feColorMatrix in="SourceAlpha" type="matrix" values="0 0 0 0 0 0 0 0 0 0 0 0 0 0 0 0 0 0 127 0" result="hardAlpha"/>
<feOffset dy="3.33333"/>
<feGaussianBlur stdDeviation="2.66666"/>
<feComposite in2="hardAlpha" operator="out"/>
<feColorMatrix type="matrix" values="0 0 0 0 0.301961 0 0 0 0 0.368627 0 0 0 0 0.435294 0 0 0 0.08 0"/>
<feBlend mode="normal" in2="BackgroundImageFix" result="effect1_dropShadow_104_7"/>
<feBlend mode="normal" in="SourceGraphic" in2="effect1_dropShadow_104_7" result="shape"/>
<feColorMatrix in="SourceAlpha" type="matrix" values="0 0 0 0 0 0 0 0 0 0 0 0 0 0 0 0 0 0 127 0" result="hardAlpha"/>
<feOffset/>
<feGaussianBlur stdDeviation="0.999999"/>
<feComposite in2="hardAlpha" operator="arithmetic" k2="-1" k3="1"/>
<feColorMatrix type="matrix" values="0 0 0 0 0.301961 0 0 0 0 0.368627 0 0 0 0 0.435294 0 0 0 0.08 0"/>
<feBlend mode="normal" in2="shape" result="effect2_innerShadow_104_7"/>
</filter>
<radialGradient id="paint0_radial_104_7" cx="0" cy="0" r="1" gradientUnits="userSpaceOnUse" gradientTransform="translate(21.1667 3.66667) rotate(121.827) scale(17.066 27.0559)">
<stop stop-opacity="0"/>
<stop offset="1" stop-color="#4D5E6F"/>
</radialGradient>
</defs>
</svg>
